<?xml version="1.0" encoding="utf-8"?>
<!-- Generator: Adobe Illustrator 22.0.1, SVG Export Plug-In . SVG Version: 6.00 Build 0)  -->
<svg version="1.1" id="BACKGROUND" xmlns="http://www.w3.org/2000/svg" xmlns:xlink="http://www.w3.org/1999/xlink" x="0px" y="0px"
	 viewBox="0 0 750 500" style="enable-background:new 0 0 750 500;" xml:space="preserve">
<style type="text/css">
	.st0{fill:#FFFBEE;}
	.st1{fill:#FF766E;}
	.st2{opacity:0.9;fill:#DAE9CF;}
	.st3{fill:#FFE1AD;}
	.st4{opacity:0.9;fill:#F0DECC;}
	.st5{clip-path:url(#SVGID_2_);}
	.st6{opacity:0.3;fill:none;stroke:#1D262D;stroke-miterlimit:10;}
	.st7{opacity:0.3438;fill:none;stroke:#1D262D;stroke-width:0.9844;stroke-miterlimit:10;}
	.st8{opacity:0.3875;fill:none;stroke:#1D262D;stroke-width:0.9688;stroke-miterlimit:10;}
	.st9{opacity:0.4313;fill:none;stroke:#1D262D;stroke-width:0.9531;stroke-miterlimit:10;}
	.st10{opacity:0.475;fill:none;stroke:#1D262D;stroke-width:0.9375;stroke-miterlimit:10;}
	.st11{opacity:0.5188;fill:none;stroke:#1D262D;stroke-width:0.9219;stroke-miterlimit:10;}
	.st12{opacity:0.5625;fill:none;stroke:#1D262D;stroke-width:0.9063;stroke-miterlimit:10;}
	.st13{opacity:0.6062;fill:none;stroke:#1D262D;stroke-width:0.8906;stroke-miterlimit:10;}
	.st14{opacity:0.65;fill:none;stroke:#1D262D;stroke-width:0.875;stroke-miterlimit:10;}
	.st15{opacity:0.6938;fill:none;stroke:#1D262D;stroke-width:0.8594;stroke-miterlimit:10;}
	.st16{opacity:0.7375;fill:none;stroke:#1D262D;stroke-width:0.8438;stroke-miterlimit:10;}
	.st17{opacity:0.7813;fill:none;stroke:#1D262D;stroke-width:0.8281;stroke-miterlimit:10;}
	.st18{opacity:0.825;fill:none;stroke:#1D262D;stroke-width:0.8125;stroke-miterlimit:10;}
	.st19{opacity:0.8687;fill:none;stroke:#1D262D;stroke-width:0.7969;stroke-miterlimit:10;}
	.st20{opacity:0.9125;fill:none;stroke:#1D262D;stroke-width:0.7813;stroke-miterlimit:10;}
	.st21{opacity:0.9563;fill:none;stroke:#1D262D;stroke-width:0.7656;stroke-miterlimit:10;}
	.st22{fill:none;stroke:#1D262D;stroke-width:0.75;stroke-miterlimit:10;}
	.st23{opacity:0.3;clip-path:url(#SVGID_2_);fill:none;stroke:#1D262D;stroke-width:0.9219;stroke-miterlimit:10;}
	.st24{opacity:0.5;}
	.st25{opacity:0.4;}
	.st26{opacity:0.3;}
	.st27{opacity:0.1;}
	.st28{opacity:5.000000e-02;}
	.st29{opacity:0.8;}
	.st30{opacity:0.6062;fill:none;stroke:#000000;stroke-miterlimit:10;}
	.st31{opacity:0.55;fill:none;stroke:#000000;stroke-miterlimit:10;}
	.st32{opacity:0.4938;fill:none;stroke:#000000;stroke-miterlimit:10;}
	.st33{opacity:0.4375;fill:none;stroke:#000000;stroke-miterlimit:10;}
	.st34{opacity:0.3812;fill:none;stroke:#000000;stroke-miterlimit:10;}
	.st35{opacity:0.325;fill:none;stroke:#000000;stroke-miterlimit:10;}
	.st36{opacity:0.2688;fill:none;stroke:#000000;stroke-miterlimit:10;}
	.st37{opacity:0.2125;fill:none;stroke:#000000;stroke-miterlimit:10;}
	.st38{opacity:0.1563;fill:none;stroke:#000000;stroke-miterlimit:10;}
	.st39{opacity:0.1;fill:none;stroke:#000000;stroke-miterlimit:10;}
	.st40{fill:none;stroke:#000000;stroke-miterlimit:10;}
	.st41{opacity:0.9438;fill:none;stroke:#000000;stroke-miterlimit:10;}
	.st42{opacity:0.8875;fill:none;stroke:#000000;stroke-miterlimit:10;}
	.st43{opacity:0.8313;fill:none;stroke:#000000;stroke-miterlimit:10;}
	.st44{opacity:0.775;fill:none;stroke:#000000;stroke-miterlimit:10;}
	.st45{opacity:0.7188;fill:none;stroke:#000000;stroke-miterlimit:10;}
	.st46{opacity:0.6625;fill:none;stroke:#000000;stroke-miterlimit:10;}
	.st47{opacity:0.6;}
	.st48{opacity:0.775;}
	.st49{opacity:0.7188;}
	.st50{opacity:0.6625;}
	.st51{opacity:0.6062;}
	.st52{opacity:0.55;}
	.st53{opacity:0.4938;}
	.st54{opacity:0.4375;}
	.st55{opacity:0.3812;}
	.st56{opacity:0.325;}
	.st57{opacity:0.2688;}
	.st58{opacity:0.2125;}
	.st59{opacity:0.3;fill:none;stroke:#1D262D;stroke-width:0.9219;stroke-miterlimit:10;}
</style>
<g>
	<rect class="st0" width="750" height="500"/>
	<circle class="st1" cx="184.2" cy="338" r="94.2"/>
	<circle class="st2" cx="438.6" cy="253.3" r="46.5"/>
	<ellipse transform="matrix(0.2246 -0.9744 0.9744 0.2246 319.9243 704.7877)" class="st3" cx="602.8" cy="151.4" rx="53" ry="53"/>
	<circle class="st4" cx="255.3" cy="78.4" r="27"/>
	<g>
		<defs>
			<rect id="SVGID_1_" width="750" height="500"/>
		</defs>
		<clipPath id="SVGID_2_">
			<use xlink:href="#SVGID_1_"  style="overflow:visible;"/>
		</clipPath>
		<g class="st5">
			<path class="st6" d="M-109.3,370.6c4.6,5.3,50.4-9.9,60.3-10.9c10-0.9,16.8-8.1,26.6-9.4c7.5-1,17.3,24.7,25,25
				c7.6,0.3,15.7-9.7,23.3-9.1c7.9,0.6,16.2,21.6,24.1,22.1c7.9,0.4,16.5-23.5,24.5-23.2c7.9,0.3,17-17.1,25-16.9
				c8,0.2,14.4,39.9,22.4,40c12,0.1,20.5-25.8,24.4-25.8c8,0,16.5,30.5,24.5,30.4c8-0.1,15.5-23,23.5-23c8-0.1,15.5-16.5,23.4-16.5
				c7.9-0.1,15.8,0.7,23.6,0.7c7.9-0.1,16.1,18.2,24,18.1c7.9-0.1,15.4-19.3,23.3-19.3c7.9,0,15.9,18,23.8,18
				c7.9,0,15.8,23.7,23.6,23.7c7.9,0,15.6-40,23.4-40c7.9,0,15.8-13.8,23.7-13.8c7.9,0,15.8,0.4,23.7,0.4c7.9,0,15.3,33.2,23.2,33.3
				c7.9,0,16.1-19.5,23.9-19.4c7.6,0.1,15.5-8.8,23.1-8.8c7.6,0.1,15.1,6.3,22.7,6.4c7.6,0.1,15.8-18.5,23.4-18.4
				s32.1,14.5,39.7,14.6c7.6,0.1,20.9-7.4,28.5-7.3c7.6,0.1,18.5,26.9,26.1,27c7.7,0.1,11.2-5.6,18.9-5.5c7.7,0.1,15,9.7,22.7,9.8
				c7.7,0.1,14.8,14.2,22.5,14.3c7.7,0.1,15.5-5.3,23.2-5.2c7.7,0.1,15.3,1,23,1.1c7.7,0.1,15.7-10.1,23.4-10
				c7.7,0.1,15.8-11.8,23.5-11.7c7.7,0.1,15.3,1.3,23,1.4c8.3,0.1,16.6-1.8,24.9-1.7c8.3,0.1,15.4,28.9,23.7,29
				c8.3,0.1,17.5-24.4,25.7-24.2c8.3,0.1,16.7-4.8,25-4.7"/>
			<path class="st7" d="M-110.8,382.1c4.5,5.1,49.6-9.9,61-11.1c10.1-1.1,17.2-7.9,27-9.3c4.2-0.6,8.6,5.1,12.9,11
				c4.5,6,8.8,11.4,12.9,11.6c7.3,0.2,15.4-8.4,22.7-6.9c4.6,0.9,9.3,8.4,13.8,14.1c3.3,4.1,6.8,7.4,10.2,7.2
				c5.8-0.3,12-12.6,17.8-18.9c2.4-2.6,4.7-4.1,6.9-3.8c4.3,0.6,8.8-3.7,13.5-8.1c3.8-3.6,7.7-7,11.4-7.2c3.2-0.2,6.3,5.1,9.2,11.9
				c4.7,10.9,9.3,23.6,14.5,23.6c11.6,0.1,19.8-22.8,23.9-21.9c4.9,1.1,10,12.7,15.1,21.1c3.1,5.1,6.2,8.8,9.2,8.3
				c7.8-1.1,15.3-23.7,23.1-23.8c7.8-0.1,15.2-14.3,23-13.5c7.7,0.8,15.4,2.1,23,2.1c7.7-0.1,15.8,16.4,23.5,15.8
				c5.5-0.5,10.7-9.9,16.1-15.2c2.3-2.2,4.6-3.8,6.9-3.9c8-0.2,15.8,16.2,23.5,15.8c2.3-0.1,4.5,1.7,6.9,4.4
				c5.7,6.6,10.8,16.8,16.6,16.8c4.3,0,8.7-7.8,12.9-17.4c4-9.1,8-19.6,12.1-20c0.8-0.1,1.6-0.2,2.4-0.5c6.8-2,13.7-9.4,20.5-10.4
				c0.4-0.1,0.8-0.1,1.2,0c7.7,0.4,15.6,1.9,23.3,2.8c1.2,0.1,2.4,1,3.6,2.2c6.6,6.7,13,26.6,19.7,25.4c2.1-0.4,4.2-2,6.4-3.9
				c5.4-4.8,11.1-14.6,16.5-16.3c0.6-0.2,1.3-0.3,1.9-0.3c4.5,0,9.1-2.5,13.6-4.8c3.4-1.8,6.8-2.9,10.1-2.4c7.3,1.1,14.6,7.7,22,8.5
				c1.1,0.1,2.2-0.1,3.3-0.7c6.8-3.6,14.1-18.6,20.7-18.5c3.8,0,10.9,1.8,18.2,4.8c5.6,2.3,11.4,5.6,16.1,6.9
				c2.9,0.8,5.4,1.4,7.1,1.4c8.6,0,21.7-5.1,29.3-5c7.5,0.1,18.5,24.3,26.3,24c7.6-0.3,11.3-5.9,18.7-5.8
				c7.4,0.1,14.6,9.5,22.1,10.1c7.4,0.5,14.4,14.1,21.8,14.5c4.5,0.3,9.1-1.3,13.6-2.7c3.1-0.9,6.1-1.8,9.1-1.9
				c7.5-0.2,14.9,0.4,22.4,0.2c2.6-0.1,5.3-1.3,8-2.8c5-2.8,10.1-6.6,15-6.3c5.9,0.4,12.1-6.2,18.2-9.1c1.6-0.8,3.3-1.2,4.9-1.1
				c7.4,0.3,14.8,1.8,22.2,2.2c5.5,0.4,11.1-0.2,16.7-0.7c2.5-0.2,5.1-0.4,7.6-0.4c5.6-0.1,10.7,11.6,16,19.6c2.6,4,5.3,7,8,7.1
				c4.6,0.1,9.4-6.7,14.2-12.9c3.9-5.1,7.8-10,11.5-10.1c8.1-0.3,16.3-5.3,24.4-5.2"/>
			<path class="st8" d="M-112.3,393.6c4.3,4.9,48.9-9.8,61.7-11.4c10.2-1.3,17.6-7.7,27.3-9.2c4.6-0.7,9.1,4.6,13.4,9.9
				c4.6,5.7,8.9,10,13.3,10.1c7.1,0.1,15-7,22.2-4.6c4.6,1.5,9.2,9.1,13.7,14.5c3.3,3.9,6.8,6.6,10.3,6c6-0.9,12.2-13.3,18-19.1
				c2.4-2.4,4.7-3.6,6.8-3.1c4.1,1,8.4-2.3,13.2-6.4c3.9-3.3,7.8-6.7,11.6-7.1c3.4-0.4,6.6,4.2,9.7,10.5c5,10.2,9.9,20.5,15.3,20.5
				c11.1,0.1,19.1-19.9,23.4-18c4.8,2.1,10,13.7,15,21.5c3.1,4.8,6.2,7.8,9.2,6.9c7.6-2.1,15-24.4,22.7-24.5
				c7.6-0.1,14.9-12.1,22.6-10.5c7.4,1.6,15,3.6,22.4,3.5c7.5-0.1,15.4,14.7,22.9,13.4c5.4-0.9,10.6-10.2,15.9-15.1
				c2.3-2.1,4.6-3.6,6.9-3.7c8.2-0.3,15.8,14.4,23.1,13.6c2.3-0.3,4.5,1.3,6.8,3.8c5.8,6.2,10.5,14.7,16.5,14.7c4.6,0,9.3-5,13.8-14
				c4.3-8.5,8.5-20.1,12.7-20.9c0.8-0.2,1.7-0.4,2.5-0.6c6.9-1.8,13.9-6.6,20.8-7.5c0.4-0.1,0.9,0,1.3,0c7.6,0.8,15.4,3.4,22.9,5.1
				c1.3,0.3,2.5,1.3,3.7,2.4c6.7,6.2,13.1,22.1,19.8,19.5c2.1-0.8,4.2-2.6,6.4-4.4c5.6-4.5,11.7-15.3,17.4-16.9
				c0.7-0.2,1.3-0.3,2-0.3c4.7,0,9.6-2.2,14.4-4.4c3.4-1.6,6.7-2.1,10-1.1c7,2.1,14.2,9.1,21.3,10.6c1.1,0.3,2.2,0.2,3.4-0.4
				c7-3.4,14.5-19.7,21.4-19.7c4.2,0,11.5,0.6,19,3.4c5.8,2.2,11.8,6.2,16.7,7.2c3,0.6,5.6,1.1,7.4,1.1c9.6-0.1,22.4-2.8,30-2.7
				c7.3,0.1,18.5,21.8,26.5,21c7.5-0.8,11.4-6.1,18.5-6c7.2,0.1,14.2,9.4,21.5,10.3c7.2,0.9,14,13.9,21.2,14.8
				c4.4,0.5,8.9-0.7,13.3-2.1c3-0.9,6-1.8,9-2c7.3-0.4,14.5-0.2,21.8-0.6c2.6-0.1,5.3-1.4,7.9-2.8c4.9-2.6,9.9-5.9,14.7-5.4
				c5.8,0.7,11.9-5.1,17.9-7.8c1.6-0.7,3.2-1.1,4.8-1c7.2,0.6,14.3,2.2,21.4,3.1c5.4,0.6,10.8,0.4,16.2,0c2.5-0.2,5-0.4,7.5-0.5
				c5.7-0.2,10.9,10.2,16.3,17.8c2.6,3.7,5.3,6.6,8.1,6.6c4.6,0.1,9.6-6.2,14.4-12c3.9-4.7,7.7-9.6,11.5-9.9
				c7.9-0.7,16-5.7,23.8-5.6"/>
			<path class="st9" d="M-113.8,405.1c4.2,4.6,48.1-9.6,62.3-11.7c10.3-1.5,18-7.5,27.7-9.1c5-0.8,9.6,4.1,13.9,8.9
				c4.8,5.4,8.9,8.6,13.7,8.6c6.8,0.1,14.6-5.5,21.7-2.4c4.6,2.1,9.2,9.9,13.6,14.8c3.2,3.6,6.8,5.8,10.4,4.9
				c6.1-1.6,12.5-14,18.2-19.4c2.4-2.3,4.7-3.1,6.8-2.3c4,1.5,8-0.9,12.9-4.7c3.9-3,7.9-6.4,11.8-7.1c3.6-0.6,7,3.3,10.3,9.2
				c5.3,9.5,10.4,17.4,16.2,17.4c10.7,0.1,18.4-17,22.9-14.1c4.7,3,9.9,14.7,14.9,21.9c3.1,4.4,6.2,6.8,9.2,5.5
				c7.4-3,14.8-25.1,22.4-25.2c7.4-0.1,14.6-10,22.2-7.4c7.2,2.4,14.6,5,21.8,4.9c7.3-0.1,15,12.9,22.4,11
				c5.3-1.4,10.4-10.6,15.6-15c2.3-2,4.6-3.3,6.9-3.5c8.3-0.5,15.7,12.6,22.8,11.4c2.2-0.4,4.4,1,6.7,3.3c6,5.8,10.2,12.7,16.4,12.7
				c4.9,0,9.9-2.3,14.7-10.7c4.5-7.9,8.9-20.5,13.4-21.8c0.9-0.2,1.7-0.5,2.6-0.7c7.1-1.7,14.1-3.8,21.1-4.6c0.4-0.1,0.9,0,1.3,0.1
				c7.5,1.2,15.2,4.9,22.5,7.5c1.3,0.5,2.6,1.5,3.9,2.6c6.7,5.7,13.2,17.5,19.9,13.7c2.1-1.2,4.2-3.2,6.4-4.8
				c5.8-4.3,12.3-16,18.2-17.5c0.7-0.2,1.4-0.3,2.1-0.3c5,0.1,10.1-1.9,15.1-4c3.4-1.5,6.5-1.4,9.9,0.2c6.7,3.1,13.8,10.5,20.6,12.7
				c1.2,0.4,2.3,0.5,3.5,0c7.1-3.1,14.9-20.9,22-20.8c4.5,0,12-0.5,19.7,2c6,2,12.3,6.9,17.4,7.5c3.1,0.4,5.8,0.8,7.7,0.7
				c10.6-0.2,23.1-0.5,30.7-0.4c7.2,0.1,18.5,19.3,26.8,18.1c7.4-1.2,11.5-6.4,18.3-6.3c6.9,0.1,13.7,9.2,20.9,10.6
				c7,1.3,13.6,13.8,20.6,15c4.4,0.7,8.7-0.2,13-1.4c2.9-0.8,5.9-1.8,8.8-2c7.1-0.7,14.1-0.8,21.2-1.5c2.6-0.2,5.2-1.5,7.8-2.8
				c4.9-2.4,9.7-5.2,14.4-4.4c5.7,1,11.7-4,17.5-6.5c1.6-0.7,3.2-1,4.7-0.8c6.9,0.8,13.8,2.7,20.6,3.9c5.2,0.9,10.4,1,15.7,0.6
				c2.5-0.2,4.9-0.4,7.4-0.5c5.7-0.4,11.1,8.9,16.5,15.9c2.7,3.5,5.4,6.1,8.2,6.2c4.7,0.1,9.7-5.6,14.5-11.1
				c3.9-4.4,7.7-9.1,11.4-9.7c7.7-1.1,15.6-6.2,23.3-6.1"/>
			<path class="st10" d="M-115.3,416.6c4,4.4,47.3-9.5,63-12c10.4-1.6,18.4-7.4,28-9c5.5-1,10.2,3.5,14.4,7.9c5,5.1,9,7.1,14,7.1
				c6.6,0,14.3-4.1,21.1-0.1c4.7,2.7,9.1,10.7,13.4,15.2c3.1,3.3,6.8,5,10.5,3.7c6.2-2.2,12.8-14.8,18.5-19.6
				c2.5-2.1,4.7-2.6,6.8-1.6c3.9,1.9,7.7,0.4,12.7-3.1c3.9-2.8,8.1-6.1,12-7c3.8-0.9,7.4,2.4,10.8,7.8c5.6,8.8,11,14.3,17,14.3
				c10.3,0.1,17.7-14.2,22.4-10.2c4.6,3.9,9.8,15.6,14.8,22.3c3.1,4.1,6.1,5.8,9.2,4.1c7.3-3.9,14.5-25.9,22-25.9
				c7.3-0.1,14.2-7.9,21.8-4.4c7,3.2,14.2,6.4,21.1,6.4c7.1-0.1,14.7,11.1,21.9,8.6c5.3-1.8,10.2-10.9,15.4-15
				c2.3-1.8,4.6-3.1,6.9-3.3c8.5-0.6,15.6,10.8,22.5,9.2c2.2-0.5,4.3,0.6,6.7,2.7c6.2,5.4,9.9,10.6,16.2,10.6
				c5.2,0,10.5,0.5,15.6-7.3c4.7-7.2,9.3-20.9,14.1-22.7c0.9-0.3,1.8-0.6,2.7-0.8c7.2-1.5,14.3-0.9,21.5-1.7c0.5-0.1,0.9,0,1.4,0.1
				c7.3,1.5,15,6.6,22.1,9.8c1.4,0.6,2.7,1.8,4,2.8c6.7,5.2,13.2,12.9,20,7.9c2.1-1.6,4.2-3.8,6.4-5.3c6.1-4,12.9-16.7,19.1-18
				c0.7-0.2,1.5-0.2,2.2-0.2c5.2,0.1,10.6-1.7,15.9-3.7c3.4-1.3,6.4-0.7,9.8,1.4c6.4,4,13.5,12.1,20,14.8c1.2,0.5,2.3,0.8,3.5,0.3
				c7.3-2.9,15.4-22,22.6-21.9c4.9,0,12.6-1.7,20.4,0.6c6.2,1.9,12.7,7.5,18.1,7.9c3.2,0.2,5.9,0.5,8.1,0.4
				c11.6-0.4,23.8,1.9,31.4,1.9c7.1,0.1,18.4,16.9,27,15.1c7.4-1.5,11.6-6.6,18.2-6.5c6.7,0.1,13.3,9,20.4,10.8
				c6.7,1.7,13.2,13.7,19.9,15.2c4.3,1,8.5,0.4,12.6-0.7c2.9-0.8,5.8-1.7,8.6-2.1c6.8-0.9,13.7-1.4,20.6-2.3
				c2.5-0.3,5.1-1.6,7.7-2.7c4.8-2.2,9.5-4.6,14.2-3.5c5.6,1.2,11.4-2.9,17.2-5.2c1.6-0.6,3.1-0.8,4.6-0.6c6.6,1,13.2,3.2,19.8,4.8
				c5.1,1.2,10.1,1.7,15.2,1.3c2.4-0.2,4.9-0.4,7.3-0.6c5.8-0.5,11.3,7.6,16.8,14c2.7,3.2,5.4,5.7,8.2,5.8
				c4.7,0.2,9.8-5.1,14.6-10.1c3.9-4,7.6-8.7,11.3-9.4c7.5-1.5,15.2-6.6,22.7-6.5"/>
			<path class="st11" d="M-116.8,428.1c3.9,4.2,46.6-9.4,63.7-12.2c10.5-1.7,18.8-7.2,28.4-8.9c5.9-1.1,10.8,3,14.9,6.9
				c5.2,4.9,9.1,5.7,14.4,5.7c6.3,0,13.9-2.6,20.6,2.1c4.7,3.3,9.1,11.5,13.3,15.6c3.1,3.1,6.8,4.2,10.6,2.5
				c6.4-2.8,13.1-15.5,18.7-19.8c2.5-2,4.7-2.1,6.7-0.9c3.7,2.3,7.3,1.8,12.4-1.4c4-2.5,8.2-5.9,12.2-7c4-1.1,7.8,1.5,11.3,6.4
				c5.8,8.1,11.5,11.1,17.8,11.2c9.8,0.1,17.1-11.4,21.9-6.3c4.5,4.7,9.7,16.6,14.7,22.7c3.1,3.8,6.1,4.8,9.2,2.7
				c7.1-4.8,14.3-26.6,21.7-26.7c7.1-0.1,13.9-5.8,21.4-1.4c6.8,4,13.8,7.8,20.5,7.8c6.9-0.1,14.4,9.3,21.4,6.2
				c5.2-2.3,10.1-11.2,15.1-14.9c2.3-1.7,4.7-2.8,6.9-3c8.6-0.8,15.5,9,22.1,7c2.2-0.7,4.2,0.2,6.6,2.1c6.3,5,9.6,8.6,16.1,8.6
				c5.5,0,11.1,3.2,16.5-3.9c5-6.6,9.8-21.4,14.7-23.5c0.9-0.4,1.8-0.7,2.8-0.9c7.3-1.4,14.5,1.9,21.8,1.2c0.5,0,1,0,1.4,0.2
				c7.2,1.8,14.8,8.3,21.7,12.1c1.4,0.8,2.7,2,4.1,2.9c6.7,4.7,13.3,8.4,20.1,2c2.2-2,4.2-4.4,6.4-5.7c6.3-3.7,13.4-17.4,19.9-18.6
				c0.8-0.1,1.5-0.2,2.3-0.2c5.5,0.1,11.2-1.4,16.6-3.3c3.4-1.2,6.3,0,9.7,2.7c6.1,4.8,13.1,13.6,19.3,17c1.2,0.7,2.3,1,3.6,0.6
				c7.5-2.6,15.8-23.1,23.2-23.1c5.3,0.1,13.2-2.9,21.1-0.8c6.5,1.8,13.2,8.1,18.8,8.2c3.3,0,6.1,0.2,8.4,0.1
				c12.6-0.5,24.5,4.2,32.2,4.3c7,0.1,18.4,14.4,27.2,12.1c7.3-1.9,11.7-6.8,18-6.8c6.4,0.1,12.9,8.8,19.8,11.1
				c6.5,2.1,12.8,13.6,19.3,15.4c4.2,1.2,8.3,0.9,12.3-0.1c2.8-0.7,5.7-1.7,8.5-2.2c6.6-1.1,13.4-2.1,20-3.2c2.5-0.4,5-1.6,7.6-2.7
				c4.7-2,9.4-3.9,13.9-2.6c5.5,1.5,11.2-1.9,16.9-4c1.5-0.6,3.1-0.7,4.6-0.4c6.4,1.2,12.7,3.7,19,5.7c4.9,1.5,9.8,2.3,14.8,1.9
				c2.4-0.2,4.8-0.4,7.2-0.7c5.9-0.7,11.5,6.2,17,12.2c2.7,2.9,5.5,5.2,8.3,5.3c4.8,0.2,9.9-4.5,14.8-9.2c3.8-3.7,7.5-8.2,11.3-9.2
				c7.3-1.9,14.9-7.1,22.1-7"/>
			<path class="st12" d="M-118.3,439.6c3.8,3.9,45.8-9.2,64.3-12.5c10.6-1.9,19.2-7.1,28.8-8.9c6.4-1.2,11.4,2.4,15.4,5.8
				c5.4,4.6,9.1,4.2,14.7,4.2c6.1-0.1,13.5-1.1,20.1,4.4c4.7,3.9,9,12.2,13.1,16c3,2.8,6.8,3.4,10.7,1.3c6.5-3.5,13.4-16.2,18.9-20
				c2.6-1.8,4.8-1.7,6.7-0.2c3.6,2.8,7,3.2,12.1,0.2c4-2.3,8.3-5.6,12.4-6.9c4.2-1.4,8.1,0.6,11.8,5.1c6.1,7.4,12.1,8,18.6,8.1
				c9.4,0.1,16.5-8.6,21.4-2.4c4.5,5.6,9.7,17.6,14.5,23c3.1,3.4,6.1,3.9,9.2,1.3c6.9-5.6,14-27.3,21.3-27.4
				c6.9-0.1,13.6-3.7,21,1.7c6.5,4.8,13.4,9.3,19.9,9.2c6.7-0.1,14,7.5,20.9,3.8c5.1-2.7,9.9-11.5,14.9-14.8
				c2.3-1.6,4.7-2.6,6.9-2.8c8.8-0.9,15.5,7.1,21.8,4.8c2.2-0.8,4.2-0.1,6.6,1.6c6.5,4.6,9.3,6.5,16,6.5c5.7,0,11.7,6,17.3-0.5
				c5.2-6,10.2-21.8,15.4-24.4c0.9-0.5,1.9-0.8,2.8-1c7.4-1.3,14.7,4.7,22.1,4.1c0.5,0,1,0.1,1.5,0.2c7,2.1,14.6,10,21.3,14.5
				c1.5,1,2.8,2.2,4.2,3.1c6.7,4.3,13.4,3.8,20.2-3.8c2.2-2.4,4.3-5,6.4-6.2c6.6-3.5,14-18.1,20.7-19.2c0.8-0.1,1.6-0.2,2.4-0.2
				c5.7,0.1,11.7-1.2,17.3-2.9c3.4-1,6.2,0.6,9.6,3.9c5.8,5.6,12.7,15.3,18.6,19.1c1.3,0.8,2.4,1.3,3.6,0.9
				c7.6-2.4,16.3-24.3,23.8-24.2c5.6,0.1,13.8-4.1,21.8-2.2c6.7,1.6,13.6,8.8,19.4,8.5c3.4-0.2,6.3-0.1,8.7-0.2
				c13.6-0.6,25.2,6.5,32.9,6.6c6.8,0.1,18.4,12,27.4,9.2c7.2-2.2,11.7-7.1,17.8-7c6.1,0.1,12.5,8.6,19.2,11.3
				c6.3,2.5,12.5,13.5,18.6,15.7c4.2,1.5,8.1,1.5,12,0.6c2.8-0.6,5.5-1.7,8.3-2.3c6.4-1.4,13-2.7,19.4-4c2.5-0.5,5-1.7,7.4-2.7
				c4.6-1.9,9.2-3.2,13.6-1.7c5.4,1.8,11-0.8,16.5-2.7c1.5-0.5,3-0.6,4.5-0.2c6.1,1.4,12.2,4.2,18.3,6.5c4.8,1.8,9.5,2.9,14.3,2.6
				c2.3-0.1,4.7-0.4,7.1-0.7c5.9-0.8,11.7,4.9,17.3,10.3c2.8,2.7,5.5,4.8,8.4,4.9c4.8,0.2,10-4,14.9-8.3c3.8-3.3,7.5-7.8,11.2-9
				c7.1-2.2,14.5-7.5,21.6-7.4"/>
			<path class="st13" d="M-119.8,451.1c3.6,3.7,45-9.1,65-12.8c10.7-2,19.6-6.9,29.1-8.8c6.8-1.3,12.1,1.9,15.9,4.8
				c5.6,4.3,9.2,2.8,15.1,2.7c5.8-0.1,13.1,0.4,19.5,6.6c4.7,4.6,9,13,13,16.4c3,2.5,6.8,2.6,10.8,0.1c6.6-4.1,13.8-16.9,19.1-20.3
				c2.6-1.7,4.8-1.2,6.6,0.5c3.5,3.2,6.6,4.5,11.8,1.9c4-2,8.4-5.3,12.6-6.9c4.4-1.6,8.5-0.3,12.4,3.7c6.4,6.7,12.6,4.9,19.4,4.9
				c9,0.1,15.8-5.8,20.9,1.5c4.5,6.4,9.6,18.6,14.4,23.4c3.1,3.1,6.1,2.9,9.2-0.1c6.7-6.5,13.8-28.1,20.9-28.1
				c6.7-0.1,13.3-1.7,20.6,4.7c6.3,5.6,13,10.7,19.2,10.6c6.5-0.1,13.6,5.7,20.4,1.4c5.1-3.2,9.8-11.8,14.6-14.8
				c2.3-1.4,4.7-2.4,6.9-2.6c8.9-1.1,15.4,5.2,21.5,2.6c2.1-0.9,4.1-0.5,6.5,1c6.7,4.2,9,4.5,15.9,4.5c6,0,12.3,8.8,18.2,2.9
				c5.4-5.4,10.6-22.2,16.1-25.3c1-0.5,1.9-0.9,2.9-1c7.5-1.1,15,7.5,22.5,7c0.5,0,1,0.1,1.5,0.3c6.9,2.4,14.4,11.7,20.9,16.8
				c1.5,1.2,2.9,2.5,4.3,3.3c6.7,3.8,13.5-0.7,20.3-9.6c2.2-2.8,4.3-5.6,6.5-6.7c6.8-3.2,14.6-18.8,21.6-19.8
				c0.8-0.1,1.7-0.2,2.5-0.2c6,0.1,12.2-0.9,18.1-2.5c3.4-0.9,6.2,1.3,9.5,5.2c5.5,6.4,12.2,16.9,17.9,21.2c1.3,1,2.4,1.6,3.7,1.2
				c7.8-2.2,16.7-25.4,24.4-25.3c6,0.1,14.3-5.3,22.5-3.6c6.9,1.5,14,9.4,20.1,8.8c3.5-0.4,6.5-0.4,9-0.5
				c14.6-0.7,25.9,8.8,33.6,8.9c6.7,0.1,18.3,9.6,27.6,6.2c7.1-2.6,11.8-7.3,17.6-7.2c5.9,0.1,12,8.4,18.7,11.6
				c6,2.9,12.1,13.4,18,15.9c4.1,1.7,7.9,2,11.6,1.2c2.7-0.6,5.4-1.6,8.2-2.3c6.2-1.6,12.6-3.3,18.8-4.9c2.5-0.6,4.9-1.8,7.3-2.7
				c4.5-1.7,9-2.5,13.4-0.8c5.3,2.1,10.7,0.3,16.2-1.4c1.5-0.5,2.9-0.4,4.4,0c5.8,1.6,11.7,4.7,17.5,7.4c4.6,2.1,9.1,3.5,13.8,3.2
				c2.3-0.1,4.6-0.4,7-0.8c6-1,11.8,3.5,17.6,8.4c2.8,2.4,5.6,4.3,8.4,4.4c4.9,0.2,10.1-3.5,15-7.3c3.8-2.9,7.4-7.3,11.1-8.7
				c6.9-2.6,14.1-8,21-7.9"/>
			<path class="st14" d="M-121.3,462.6c3.5,3.5,44.3-8.9,65.7-13.1c10.8-2.1,20-6.8,29.5-8.7c7.2-1.4,12.7,1.3,16.4,3.8
				c5.9,4,9.2,1.4,15.5,1.2c5.6-0.1,12.7,1.9,19,8.8c4.7,5.2,9,13.8,12.9,16.8c2.9,2.3,6.8,1.8,10.9-1.1
				c6.8-4.7,14.1-17.6,19.4-20.5c2.7-1.5,4.8-0.7,6.6,1.3c3.4,3.6,6.3,5.9,11.5,3.6c4.1-1.8,8.5-5.1,12.8-6.9
				c4.6-1.9,8.9-1.2,12.9,2.4c6.7,6,13.2,1.8,20.3,1.8c8.5,0.1,15.3-3.1,20.4,5.4c4.5,7.3,9.5,19.5,14.3,23.8c3.1,2.8,6.1,2,9.2-1.5
				c6.6-7.3,13.5-28.8,20.6-28.9c6.5-0.1,13,0.4,20.1,7.7c6.1,6.3,12.6,12.1,18.6,12.1c6.3,0,13.3,3.9,19.9-1
				c5-3.7,9.6-12.1,14.4-14.7c2.4-1.3,4.7-2.1,6.9-2.4c9.1-1.3,15.3,3.4,21.2,0.4c2.1-1.1,4-0.9,6.4,0.5c6.9,3.8,8.7,2.4,15.8,2.4
				c6.3,0,12.9,11.5,19.1,6.3c5.7-4.8,11.1-22.6,16.7-26.1c1-0.6,2-1,3-1.1c7.6-1,15.2,10.4,22.8,9.9c0.5,0,1.1,0.1,1.6,0.3
				c6.8,2.7,14.1,13.5,20.5,19.2c1.6,1.4,2.9,2.7,4.4,3.5c6.7,3.3,13.5-5.3,20.4-15.4c2.2-3.3,4.3-6.2,6.5-7.1
				c7.1-2.9,15.2-19.5,22.4-20.4c0.9-0.1,1.7-0.2,2.6-0.1c6.2,0.1,12.7-0.7,18.8-2.2c3.3-0.8,6.1,1.9,9.4,6.4
				c5.3,7.2,11.8,18.6,17.2,23.3c1.3,1.2,2.4,1.9,3.7,1.6c8-1.9,17.1-26.6,25-26.5c6.4,0.1,14.9-6.5,23.2-4.9
				c7.1,1.3,14.5,10.1,20.8,9.1c3.6-0.6,6.7-0.7,9.3-0.9c15.6-0.9,26.7,11.1,34.3,11.2c6.6,0.1,18.3,7.2,27.8,3.3
				c7-2.9,11.9-7.6,17.4-7.5c5.6,0.1,11.6,8.2,18.1,11.9c5.8,3.3,11.7,13.3,17.4,16.1c4,2,7.8,2.6,11.3,1.9c2.6-0.5,5.3-1.6,8-2.4
				c6-1.8,12.2-4,18.2-5.7c2.4-0.7,4.8-1.9,7.2-2.7c4.5-1.5,8.8-1.8,13.1,0.1c5.2,2.4,10.5,1.4,15.9-0.1c1.5-0.4,2.9-0.3,4.3,0.1
				c5.6,1.8,11.2,5.3,16.7,8.2c4.4,2.4,8.8,4.1,13.4,3.9c2.3-0.1,4.6-0.4,6.9-0.8c6.1-1.2,12,2.2,17.8,6.5c2.8,2.1,5.6,3.9,8.5,4
				c5,0.3,10.1-2.9,15.1-6.4c3.7-2.6,7.3-6.9,11.1-8.5c6.7-2.9,13.8-8.4,20.4-8.4"/>
			<path class="st15" d="M-122.9,474.1c3.3,3.2,43.5-8.7,66.3-13.3c11-2.2,20.4-6.6,29.8-8.6c7.7-1.6,13.9,0,16.9,2.7
				c6.8,2.5,9.3-0.1,15.8-0.3c5.3-0.2,12.3,3.4,18.5,11.1c4.7,5.9,8.9,14.6,12.7,17.2c2.9,2,6.8,1,11-2.2
				c6.9-5.3,14.5-18.3,19.6-20.7c2.8-1.3,4.8-0.2,6.6,2c3.2,4,5.9,7.3,11.3,5.2c4.1-1.5,8.6-4.8,13-6.8c4.8-2.2,9.3-2.1,13.4,1
				c7,5.3,13.7-1.3,21.1-1.3c8.1,0.1,14.7-0.3,19.9,9.3c4.5,8.1,9.5,20.5,14.2,24.2c3.1,2.5,6.1,1.1,9.2-2.9
				c6.5-8.2,13.3-29.5,20.2-29.6c6.4-0.1,12.8,2.5,19.7,10.8c5.9,7.1,12.2,13.6,18,13.5c6.1,0,12.9,2.1,19.4-3.3
				c4.9-4.2,9.5-12.4,14.2-14.6c2.4-1.1,4.7-1.9,6.9-2.2c9.2-1.4,15.2,1.5,20.8-1.8c2.1-1.2,4-1.2,6.4-0.1c7.1,3.4,8.4,0.4,15.7,0.4
				c6.6,0,13.5,14.3,20,9.7c5.9-4.2,11.5-23,17.4-27c1-0.7,2.1-1.1,3.1-1.2c7.8-0.9,15.4,13.2,23.1,12.8c0.6,0,1.1,0.1,1.6,0.4
				c6.7,2.9,13.8,15.3,20.1,21.5c1.6,1.6,3,3,4.5,3.6c6.7,2.9,13.6-9.9,20.4-21.3c2.2-3.7,4.3-6.8,6.5-7.6
				c7.4-2.6,15.8-20.3,23.3-21c0.9-0.1,1.8-0.1,2.7-0.1c6.5,0.1,13.2-0.5,19.6-1.8c3.3-0.7,6.1,2.6,9.3,7.7
				c5.1,8,11.3,20.3,16.6,25.4c1.4,1.3,2.5,2.1,3.8,1.9c8.1-1.7,17.6-27.7,25.7-27.6c6.7,0.1,15.5-7.7,23.9-6.3
				c7.4,1.2,14.9,10.7,21.4,9.4c3.7-0.8,6.9-1,9.6-1.2c16.6-1,27.4,13.4,35.1,13.5c6.5,0.1,18.3,4.8,28,0.3c7-3.2,12-7.8,17.2-7.7
				c5.4,0.1,11.2,8,17.5,12.1c5.6,3.6,11.3,13.3,16.7,16.4c3.9,2.2,7.6,3.1,11,2.5c2.6-0.5,5.2-1.5,7.9-2.5
				c5.8-2.1,11.8-4.6,17.6-6.6c2.4-0.8,4.7-2,7.1-2.7c4.4-1.3,8.6-1.2,12.8,1.1c5.1,2.7,10.3,2.5,15.6,1.1c1.4-0.4,2.8-0.2,4.3,0.3
				c5.3,1.9,10.7,5.8,15.9,9.1c4.3,2.7,8.5,4.8,12.9,4.6c2.2-0.1,4.5-0.4,6.7-0.9c6.2-1.3,12.2,0.8,18.1,4.7
				c2.8,1.9,5.7,3.4,8.6,3.6c5,0.3,10.2-2.4,15.3-5.4c3.7-2.2,7.3-6.4,11-8.2c6.5-3.2,13.4-8.9,19.8-8.8"/>
			<path class="st16" d="M-124.4,485.6c3.2,3,42.8-8.5,67-13.6c11.1-2.3,20.8-6.5,30.2-8.5c8.1-1.7,14.5-0.6,17.5,1.7
				c7.1,2.1,9.4-1.5,16.2-1.7c5.1-0.2,11.9,4.9,17.9,13.3c4.7,6.5,8.9,15.3,12.6,17.6c2.8,1.7,6.8,0.2,11.1-3.4
				c7.1-6,14.9-18.9,19.8-21c2.8-1.2,4.9,0.3,6.5,2.7c3.1,4.5,5.5,8.6,11,6.9c4.1-1.3,8.7-4.6,13.2-6.8c4.9-2.4,9.7-3,14-0.3
				c7.4,4.6,14.3-4.4,21.9-4.4c7.7,0.1,14.1,2.5,19.4,13.2c4.5,9,9.4,21.5,14.1,24.6c3.1,2.1,6.1,0.1,9.2-4.3
				c6.4-9,13-30.3,19.8-30.3c6.2-0.1,12.5,4.5,19.3,13.8c5.7,7.8,11.8,15,17.4,14.9c5.9,0,12.6,0.2,18.8-5.7
				c4.9-4.6,9.4-12.7,13.9-14.6c2.4-1,4.7-1.7,6.9-2c9.4-1.6,15.2-0.4,20.5-4c2.1-1.4,3.9-1.6,6.3-0.7c7.3,3,8.1-1.7,15.6-1.7
				c6.9,0,14.1,17,20.9,13.1c6.1-3.5,12-23.4,18.1-27.9c1-0.8,2.1-1.2,3.2-1.3c7.9-0.7,15.6,16,23.5,15.7c0.6,0,1.1,0.2,1.7,0.4
				c6.5,3.2,13.5,17,19.7,23.8c1.6,1.8,3.1,3.3,4.6,3.8c6.6,2.4,13.6-14.4,20.5-27.1c2.2-4.1,4.3-7.4,6.5-8.1
				c7.6-2.3,16.4-21,24.1-21.6c0.9-0.1,1.9-0.1,2.8-0.1c6.7,0.1,13.6-0.3,20.3-1.4c3.3-0.6,6,3.2,9.2,8.9c4.9,8.8,10.8,22,15.9,27.5
				c1.4,1.5,2.5,2.4,3.9,2.2c8.3-1.4,18-28.8,26.3-28.7c7.1,0.1,16.1-8.9,24.6-7.7c7.6,1,15.4,11.4,22.1,9.7c3.8-1,7.1-1.3,10-1.5
				c17.6-1.1,28.1,15.7,35.8,15.8c6.3,0.1,18.3,2.4,28.2-2.7c6.9-3.5,12.1-8,17.1-8c5.1,0.1,10.8,7.8,17,12.4
				c5.3,4,10.9,13.2,16.1,16.6c3.9,2.5,7.4,3.7,10.6,3.2c2.5-0.4,5.1-1.5,7.7-2.6c5.6-2.3,11.4-5.2,17-7.4c2.4-0.9,4.7-2.1,7-2.7
				c4.3-1.1,8.5-0.5,12.6,2c5,3,10,3.5,15.2,2.4c1.4-0.3,2.8-0.1,4.2,0.5c5,2.1,10.2,6.3,15.1,9.9c4.1,3,8.2,5.4,12.4,5.2
				c2.2-0.1,4.4-0.4,6.6-1c6.2-1.5,12.4-0.5,18.3,2.8c2.9,1.6,5.7,2.9,8.6,3.1c5.1,0.3,10.3-1.9,15.4-4.5c3.7-1.9,7.2-5.9,10.9-8
				c6.3-3.6,13-9.3,19.3-9.3"/>
			<path class="st17" d="M-125.9,497.1c3,2.8,42-8.3,67.7-13.9c11.2-2.4,21.2-6.4,30.6-8.4c8.5-1.9,15.2-1.2,18,0.7
				c7.3,1.6,9.4-2.9,16.5-3.2c4.8-0.2,11.5,6.4,17.4,15.6c4.6,7.2,8.9,16.1,12.4,18c2.8,1.5,6.8-0.6,11.2-4.6
				c7.2-6.6,15.2-19.6,20-21.2c2.9-1,4.9,0.8,6.5,3.4c3,4.9,5.2,10,10.7,8.6c4.1-1,8.8-4.3,13.4-6.7c5.1-2.7,10.1-3.9,14.5-1.7
				c7.7,3.9,14.8-7.6,22.7-7.5c7.2,0,13.5,5.3,18.9,17c4.5,9.8,9.4,22.4,14,25c3.1,1.8,6.1-0.8,9.2-5.7c6.3-9.8,12.8-31,19.5-31
				c6,0,12.2,6.6,18.9,16.9c5.6,8.6,11.4,16.4,16.7,16.4c5.7,0,12.2-1.6,18.3-8.1c4.8-5.1,9.3-13,13.7-14.5c2.4-0.8,4.8-1.4,6.9-1.8
				c9.5-1.8,15.1-2.3,20.2-6.2c2-1.5,3.9-2,6.2-1.2c7.5,2.5,7.8-3.7,15.4-3.7c7.2,0,14.6,19.8,21.7,16.5
				c6.3-2.9,12.4-23.8,18.7-28.8c1.1-0.8,2.2-1.3,3.2-1.4c8-0.6,15.8,18.9,23.8,18.6c0.6,0,1.2,0.2,1.7,0.5
				c6.4,3.4,13.2,18.8,19.3,26.2c1.6,2,3.1,3.5,4.7,4c6.6,2,13.7-19,20.6-32.9c2.2-4.5,4.4-8,6.5-8.5c7.9-1.9,16.9-21.7,24.9-22.2
				c1-0.1,1.9-0.1,2.9-0.1c7,0.1,14.1-0.1,21.1-1c3.3-0.5,6,3.9,9.1,10.2c4.7,9.6,10.3,23.7,15.2,29.6c1.4,1.7,2.6,2.7,3.9,2.5
				c8.5-1.2,18.5-30,26.9-29.9c7.5,0.1,16.7-10.1,25.3-9.1c7.8,0.9,15.8,12.1,22.8,10c3.8-1.1,7.3-1.6,10.3-1.8
				c18.6-1.3,28.8,18,36.5,18.1c6.2,0.1,18.3,0,28.4-5.6c6.8-3.8,12.2-8.3,16.9-8.2c4.9,0.1,10.4,7.5,16.4,12.6
				c5.1,4.3,10.5,13.2,15.4,16.8c3.8,2.8,7.2,4.2,10.3,3.8c2.5-0.3,5-1.5,7.5-2.7c5.4-2.5,11-5.9,16.4-8.3c2.3-1,4.6-2.2,6.8-2.7
				c4.2-0.9,8.3,0.2,12.3,2.9c4.9,3.3,9.8,4.6,14.9,3.7c1.4-0.3,2.7,0,4.1,0.7c4.8,2.3,9.6,6.8,14.3,10.8c4,3.3,7.8,6,11.9,5.9
				c2.2-0.1,4.3-0.4,6.5-1c6.3-1.7,12.6-1.8,18.6,0.9c2.9,1.3,5.8,2.5,8.7,2.7c5.1,0.3,10.4-1.3,15.5-3.6c3.6-1.6,7.2-5.4,10.9-7.8
				c6.1-3.9,12.7-9.8,18.7-9.7"/>
			<path class="st18" d="M-127.4,508.6c2.9,2.5,41.3-8.1,68.3-14.1c11.3-2.5,21.6-6.3,30.9-8.3c9-2,15.8-1.8,18.5-0.3
				c7.6,1.2,9.5-4.3,16.9-4.7c4.6-0.2,11,7.9,16.9,17.8c4.6,7.8,8.9,16.9,12.3,18.4c2.7,1.2,6.8-1.4,11.2-5.8
				c7.4-7.2,15.6-20.2,20.2-21.4c3-0.8,4.9,1.2,6.5,4.1c2.9,5.3,4.8,11.3,10.4,10.2c4.2-0.8,8.9-4.1,13.6-6.7c5.3-3,10.5-4.8,15-3
				c8,3.2,15.4-10.7,23.5-10.6c6.8,0,13,8.1,18.4,20.9c4.5,10.7,9.4,23.4,13.8,25.4c3.1,1.4,6.1-1.7,9.2-7.1
				c6.2-10.7,12.5-31.7,19.1-31.8c5.8,0,12,8.6,18.5,19.9c5.4,9.3,11,17.8,16.1,17.8c5.5,0,11.8-3.4,17.8-10.5
				c4.7-5.6,9.1-13.2,13.4-14.4c2.5-0.7,4.8-1.2,6.9-1.6c9.7-2,14.9-4.2,19.8-8.4c2-1.7,3.8-2.4,6.2-1.8c7.7,2,7.5-5.7,15.3-5.8
				c7.4,0,15.2,22.5,22.6,19.9c6.5-2.3,12.9-24.2,19.4-29.6c1.1-0.9,2.2-1.5,3.3-1.5c8.1-0.5,16,21.7,24.1,21.5
				c0.6,0,1.2,0.2,1.8,0.5c6.3,3.6,12.9,20.6,18.9,28.5c1.7,2.2,3.2,3.8,4.8,4.2c6.6,1.6,13.8-23.5,20.7-38.8c2.2-4.9,4.4-8.6,6.5-9
				c8.2-1.6,17.5-22.4,25.8-22.8c1,0,2-0.1,3,0c7.2,0.1,14.6,0.1,21.8-0.7c3.2-0.4,6,4.5,9,11.4c4.6,10.4,9.8,25.4,14.5,31.7
				c1.4,1.9,2.6,3,4,2.8c8.6-0.9,18.9-31.1,27.5-31c7.8,0.1,17.3-11.3,26-10.5c8,0.7,16.3,12.7,23.4,10.3c3.9-1.3,7.5-1.9,10.6-2.2
				c19.6-1.4,29.5,20.3,37.2,20.4c6.1,0.1,18.3-2.3,28.6-8.6c6.8-4.1,12.3-8.5,16.7-8.5c4.6,0,10,7.3,15.8,12.9
				c4.9,4.7,10.1,13.1,14.8,17c3.7,3,7,4.8,10,4.5c2.4-0.3,4.9-1.4,7.4-2.7c5.2-2.7,10.6-6.5,15.8-9.1c2.3-1.1,4.5-2.3,6.7-2.7
				c4.1-0.7,8.1,0.9,12,3.8c4.8,3.6,9.6,5.7,14.6,5c1.4-0.2,2.7,0.2,4,0.9c4.5,2.4,9.1,7.4,13.5,11.6c3.8,3.7,7.5,6.6,11.5,6.5
				c2.1-0.1,4.3-0.5,6.4-1.1c6.4-1.9,12.7-3.2,18.8-1c2.9,1.1,5.8,2,8.7,2.2c5.2,0.4,10.4-0.8,15.6-2.6c3.6-1.2,7.1-4.9,10.8-7.5
				c6-4.2,12.3-10.2,18.1-10.2"/>
			<path class="st19" d="M-128.9,520.1c2.7,2.3,40.5-7.9,69-14.4c11.4-2.6,22-6.1,31.3-8.2c9.4-2.1,16.3-2.1,19-1.4
				c7.7,2,9.6-5.7,17.3-6.2c4.3-0.3,10.6,9.5,16.3,20.1c4.6,8.5,8.8,17.7,12.2,18.8c2.7,0.9,6.8-2.2,11.3-7
				c7.5-7.8,16-20.8,20.5-21.6c3.1-0.6,4.9,1.7,6.4,4.8c2.8,5.7,4.4,12.7,10.1,11.9c4.2-0.6,9-3.8,13.8-6.7
				c5.5-3.2,10.9-5.7,15.5-4.4c8.3,2.4,15.9-13.8,24.4-13.7c6.4,0,12.4,10.9,17.9,24.8c4.5,11.6,9.3,24.3,13.7,25.8
				c3.1,1.1,6.1-2.7,9.2-8.5c6.1-11.5,12.3-32.4,18.8-32.5c5.7,0,11.7,10.7,18.1,22.9c5.2,10.1,10.6,19.3,15.5,19.2
				c5.3,0,11.5-5.2,17.3-12.9c4.6-6.1,9-13.5,13.2-14.3c2.5-0.5,4.8-1,6.9-1.4c9.8-2.2,14.8-6.1,19.5-10.6c2-1.9,3.8-2.8,6.1-2.3
				c8,1.6,7.2-7.8,15.2-7.8c7.7,0,15.8,25.3,23.5,23.3c6.7-1.8,13.3-24.6,20.1-30.5c1.1-1,2.3-1.6,3.4-1.6
				c8.2-0.4,16.3,24.5,24.5,24.3c0.6,0,1.2,0.2,1.8,0.6c6.2,3.8,12.6,22.4,18.5,30.9c1.7,2.4,3.2,4,4.9,4.3
				c6.5,1.2,13.9-28.1,20.8-44.6c2.2-5.3,4.4-9.1,6.5-9.4c8.5-1.2,18.1-23.1,26.6-23.4c1,0,2,0,3.1,0c7.5,0.1,15.1,0.3,22.6-0.3
				c3.2-0.3,6,5.2,8.9,12.7c4.4,11.2,9.3,27.1,13.8,33.8c1.4,2,2.6,3.3,4,3.1c8.8-0.7,19.3-32.2,28.1-32.2
				c8.2,0.1,17.8-12.6,26.7-11.9c8.3,0.6,16.7,13.4,24.1,10.6c4-1.5,7.7-2.2,10.9-2.5c20.6-1.5,30.2,22.6,38,22.7
				c6,0.1,18.3-4.7,28.9-11.6c6.7-4.4,12.3-8.8,16.5-8.7c4.4,0,9.6,7.1,15.3,13.2c4.7,5,9.7,13.1,14.1,17.3c3.6,3.3,6.8,5.4,9.7,5.1
				c2.4-0.2,4.8-1.4,7.2-2.8c5-2.9,10.2-7.2,15.2-10c2.3-1.3,4.4-2.4,6.6-2.7c4-0.5,7.9,1.6,11.7,4.7c4.7,3.9,9.3,6.8,14.2,6.2
				c1.3-0.1,2.6,0.3,4,1.1c4.3,2.6,8.6,7.9,12.7,12.5c3.6,4,7.2,7.2,11,7.2c2.1,0,4.2-0.5,6.3-1.1c6.4-2.1,12.9-4.5,19.1-2.8
				c2.9,0.8,5.9,1.6,8.8,1.8c5.2,0.4,10.5-0.3,15.8-1.7c3.5-0.9,7.1-4.5,10.8-7.3c5.8-4.5,11.9-10.7,17.6-10.6"/>
			<path class="st20" d="M-130.4,531.6c2.6,2.1,39.8-7.6,69.7-14.7c11.6-2.7,22.4-6,31.6-8.1c9.8-2.3,17.1-2.8,19.5-2.4
				c8,1.3,9.6-7.1,17.6-7.6c4.1-0.3,10.2,11,15.8,22.3c4.5,9.1,8.8,18.4,12,19.2c2.6,0.6,6.8-3,11.4-8.1
				c7.6-8.4,16.4-21.4,20.7-21.9c3.1-0.3,5,2.2,6.4,5.6c2.6,6.1,4.1,14,9.9,13.6c4.2-0.3,9.1-3.6,14-6.6c5.7-3.5,11.3-6.7,16.1-5.7
				c8.6,1.7,16.4-16.9,25.2-16.9c6,0,11.9,13.6,17.4,28.7c4.6,12.4,9.3,25.2,13.6,26.2c3.1,0.7,6.2-3.6,9.2-9.9
				c6-12.3,12-33.2,18.4-33.2c5.5,0,11.5,12.7,17.7,26c5.1,10.8,10.2,20.7,14.9,20.6c5.2,0,11.1-7,16.8-15.3
				c4.5-6.5,8.9-13.7,12.9-14.3c2.5-0.3,4.8-0.7,6.9-1.2c10-2.4,14.7-8,19.2-12.8c1.9-2,3.7-3.2,6.1-2.9c8.2,1,6.9-9.8,15.1-9.9
				c8,0,16.4,28,24.4,26.6c6.9-1.2,13.8-25,20.7-31.4c1.2-1.1,2.3-1.7,3.5-1.7c8.3-0.2,16.5,27.4,24.8,27.2c0.6,0,1.3,0.2,1.9,0.7
				c6.2,4.1,12.2,24.1,18.1,33.2c1.7,2.6,3.3,4.3,5,4.5c6.5,0.8,13.9-32.7,20.9-50.4c2.2-5.7,4.4-9.7,6.5-9.9
				c8.8-0.8,18.7-23.8,27.5-24c1,0,2.1,0,3.2,0c7.7,0.2,15.6,0.5,23.3,0.1c3.2-0.2,6,5.8,8.8,14c4.2,12,8.7,28.7,13.1,35.9
				c1.4,2.2,2.7,3.5,4.1,3.5c9-0.4,19.8-33.4,28.7-33.3c8.6,0.1,18.4-13.8,27.5-13.3c8.5,0.4,17.1,14.1,24.8,10.9
				c4.1-1.7,7.9-2.5,11.2-2.8c21.6-1.7,31,25,38.7,25c5.8,0.1,18.3-7,29.1-14.5c6.7-4.7,12.4-9,16.3-9c4.1,0,9.2,6.8,14.7,13.4
				c4.5,5.4,9.2,13,13.5,17.5c3.5,3.6,6.6,5.9,9.3,5.8c2.3-0.1,4.7-1.3,7.1-2.9c4.8-3.1,9.8-7.9,14.6-10.8c2.2-1.4,4.4-2.5,6.5-2.7
				c4-0.3,7.7,2.2,11.5,5.7c4.5,4.2,9.1,7.8,13.9,7.5c1.3-0.1,2.6,0.4,3.9,1.2c4,2.7,8,8.4,12,13.3c3.4,4.3,6.9,7.9,10.5,7.8
				c2,0,4.1-0.5,6.2-1.2c6.5-2.3,13.1-5.8,19.4-4.7c3,0.5,5.9,1.1,8.9,1.4c5.3,0.4,10.6,0.1,15.9-0.8c3.5-0.6,7-4,10.7-7.1
				c5.7-4.8,11.6-11.1,17-11.1"/>
			<path class="st21" d="M-131.9,543.1c2.4,1.8,39-7.4,70.3-15c11.7-2.8,22.8-5.9,32-8.1c10.3-2.4,17.8-3.6,20-3.4
				c8.4,0.5,9.7-8.5,18-9.1c3.8-0.3,9.7,12.5,15.3,24.6c4.5,9.8,8.8,19.2,11.9,19.6c2.5,0.3,6.8-3.8,11.5-9.3
				c7.8-9.1,16.7-22,20.9-22.1c3.2-0.1,5,2.7,6.4,6.3c2.5,6.6,3.7,15.4,9.6,15.2c4.2-0.1,9.2-3.3,14.2-6.6
				c5.8-3.8,11.7-7.6,16.6-7.1c9,0.9,17-20,26-20c5.5,0,11.3,16.4,16.9,32.6c4.6,13.3,9.2,26.1,13.5,26.6c3.2,0.4,6.2-4.6,9.2-11.3
				c5.9-13.2,11.8-33.9,18-33.9c5.3,0,11.3,14.8,17.3,29c4.9,11.6,9.8,22.1,14.2,22.1c5,0,10.7-8.8,16.3-17.7
				c4.4-7,8.8-14,12.7-14.2c2.5-0.2,4.8-0.5,6.9-1c10.1-2.6,14.6-9.9,18.8-15c1.9-2.2,3.7-3.6,6-3.4c8.4,0.5,6.6-11.9,15-11.9
				c8.3,0,17,30.7,25.3,30c7.1-0.6,14.2-25.4,21.4-32.2c1.2-1.1,2.4-1.8,3.6-1.8c8.5-0.1,16.7,30.2,25.2,30.1c0.7,0,1.3,0.3,1.9,0.7
				c6.1,4.3,11.9,25.9,17.7,35.5c1.7,2.8,3.4,4.6,5.1,4.7c6.5,0.4,14-37.2,21-56.3c2.2-6.1,4.4-10.3,6.5-10.4
				c9-0.4,19.3-24.5,28.3-24.6c1.1,0,2.2,0,3.3,0c8,0.2,16.1,0.6,24.1,0.4c3.2-0.1,6,6.5,8.8,15.2c4.1,12.8,8.1,30.4,12.5,38
				c1.3,2.4,2.7,3.8,4.1,3.8c9.1-0.2,20.2-34.5,29.3-34.4c8.9,0.1,19-15,28.2-14.7c8.7,0.2,17.6,14.7,25.4,11.2
				c4.2-1.9,8.1-2.8,11.6-3.1c22.6-1.8,31.7,27.3,39.4,27.3c5.7,0,18.4-9.3,29.3-17.5c6.7-5,12.5-9.2,16.1-9.2
				c3.9,0,8.8,6.6,14.1,13.7c4.3,5.7,8.8,13,12.9,17.7c3.4,3.9,6.4,6.5,9,6.4c2.2-0.1,4.6-1.3,6.9-3c4.6-3.3,9.4-8.5,14-11.7
				c2.2-1.5,4.3-2.6,6.4-2.6c3.9-0.2,7.6,2.9,11.2,6.6c4.4,4.5,8.9,8.9,13.6,8.8c1.3,0,2.5,0.5,3.8,1.4c3.8,2.8,7.5,9,11.2,14.2
				c3.3,4.6,6.5,8.5,10,8.5c2,0,4-0.5,6.1-1.3c6.6-2.5,13.2-7.2,19.6-6.6c3,0.3,6,0.7,8.9,0.9c5.3,0.4,10.7,0.6,16,0.2
				c3.4-0.3,7-3.5,10.6-6.8c5.5-5.1,11.2-11.6,16.4-11.6"/>
			<path class="st22" d="M-133.4,554.6c4,2.9,115.2-27.2,123.9-27.7c8.7-0.5,9.8-9.9,18.3-10.6c6.5-0.5,19.8,46.6,26.5,46.8
				c6.6,0.2,26.2-33.2,32.8-32.8c9.2,0.4,6.4,23.6,15.6,23.9c9.2,0.3,22.3-15.1,31.5-15c9.3,0.1,17.5-23.1,26.8-23.1
				c9.3,0,20.5,63.6,29.8,63.6c9.3,0,17.6-47.4,26.9-47.4c9.3-0.1,21.2,55.6,30.5,55.5c8.6-0.1,19.6-34.3,28.2-34.2
				c21.2,0.3,22.8-22,31.3-22c8.6,0,6.3-13.9,14.9-14c8.6,0,17.6,33.4,26.1,33.4c8.6,0,17.1-35,25.7-35c8.6,0,16.9,33,25.5,33
				c8.6,0,16,43.5,24.6,43.5c8.6,0,19-72.9,27.6-72.9c9.3,0,19.8-25.2,29.1-25.2c9.3,0.1,18.9,0.8,28.1,0.9
				c9.3,0.1,15.4,60.7,24.6,60.7c9.3,0.1,20.7-35.6,29.9-35.6c9.3,0.1,19.6-16.2,28.9-16.1c8.9,0.1,18,15.4,26.1,11.5
				c32.8-15.7,43.1,26.1,52,26.2c8.9,0.1,36.5-30,45.4-29.9c8.9,0.1,25.5,38.9,34.4,38.9c8.4,0.1,18-18.3,26.4-18.2
				c8.4,0.1,15.8,17.5,24.2,17.5c8.4,0.1,15.3,25.7,23.7,25.8c8.4,0.1,17.4-9.8,25.9-9.8c8.4,0.1,16.7,1.5,25.2,1.6
				c8.4,0.1,18-18.7,26.4-18.6"/>
		</g>
		<path class="st23" d="M-10.4,153c48.9-51.4,118-83.5,194.6-83.5c148.3,0,268.5,120.2,268.5,268.5c0,5.6-0.2,11.2-0.5,16.7"/>
		<path class="st23" d="M774.8,126.8c-31.9,20.7-71.2,32.9-113.7,32.9C554.5,159.8,468,82.7,468-12.3"/>
	</g>
	<g>
		<path class="st24" d="M397.8,112.4c0,1-0.8,1.8-1.8,1.8c-1,0-1.8-0.8-1.8-1.8c0-1,0.8-1.8,1.8-1.8
			C397,110.6,397.8,111.4,397.8,112.4z"/>
		<path class="st25" d="M397.8,104c0,1-0.8,1.8-1.8,1.8c-1,0-1.8-0.8-1.8-1.8c0-1,0.8-1.8,1.8-1.8C397,102.2,397.8,103,397.8,104z"
			/>
		<path class="st26" d="M397.8,95.5c0,1-0.8,1.8-1.8,1.8c-1,0-1.8-0.8-1.8-1.8c0-1,0.8-1.8,1.8-1.8C397,93.8,397.8,94.6,397.8,95.5z
			"/>
		<path class="st27" d="M397.8,87.1c0,1-0.8,1.8-1.8,1.8c-1,0-1.8-0.8-1.8-1.8c0-1,0.8-1.8,1.8-1.8C397,85.3,397.8,86.1,397.8,87.1z
			"/>
		<path class="st27" d="M397.8,78.6c0,1-0.8,1.8-1.8,1.8c-1,0-1.8-0.8-1.8-1.8c0-1,0.8-1.8,1.8-1.8C397,76.8,397.8,77.6,397.8,78.6z
			"/>
		<path class="st27" d="M397.8,70.1c0,1-0.8,1.8-1.8,1.8c-1,0-1.8-0.8-1.8-1.8c0-1,0.8-1.8,1.8-1.8C397,68.3,397.8,69.1,397.8,70.1z
			"/>
		<path class="st28" d="M397.8,61.6c0,1-0.8,1.8-1.8,1.8c-1,0-1.8-0.8-1.8-1.8c0-1,0.8-1.8,1.8-1.8C397,59.8,397.8,60.6,397.8,61.6z
			"/>
	</g>
	<g>
		<path class="st24" d="M377.8,85.2c0,1-0.8,1.8-1.8,1.8c-1,0-1.8-0.8-1.8-1.8c0-1,0.8-1.8,1.8-1.8C377,83.4,377.8,84.2,377.8,85.2z
			"/>
		<path class="st25" d="M377.8,76.8c0,1-0.8,1.8-1.8,1.8c-1,0-1.8-0.8-1.8-1.8c0-1,0.8-1.8,1.8-1.8C377,75,377.8,75.8,377.8,76.8z"
			/>
		<path class="st26" d="M377.8,68.4c0,1-0.8,1.8-1.8,1.8c-1,0-1.8-0.8-1.8-1.8c0-1,0.8-1.8,1.8-1.8C377,66.6,377.8,67.4,377.8,68.4z
			"/>
		<path class="st27" d="M377.8,59.9c0,1-0.8,1.8-1.8,1.8c-1,0-1.8-0.8-1.8-1.8c0-1,0.8-1.8,1.8-1.8C377,58.2,377.8,59,377.8,59.9z"
			/>
		<path class="st27" d="M377.8,51.4c0,1-0.8,1.8-1.8,1.8c-1,0-1.8-0.8-1.8-1.8c0-1,0.8-1.8,1.8-1.8C377,49.7,377.8,50.5,377.8,51.4z
			"/>
		<path class="st27" d="M377.8,42.9c0,1-0.8,1.8-1.8,1.8c-1,0-1.8-0.8-1.8-1.8s0.8-1.8,1.8-1.8C377,41.2,377.8,42,377.8,42.9z"/>
		<path class="st28" d="M377.8,34.4c0,1-0.8,1.8-1.8,1.8c-1,0-1.8-0.8-1.8-1.8s0.8-1.8,1.8-1.8C377,32.7,377.8,33.5,377.8,34.4z"/>
	</g>
	<g>
		<path class="st24" d="M181.2,206.8c0,1-0.8,1.8-1.8,1.8c-1,0-1.8-0.8-1.8-1.8c0-1,0.8-1.8,1.8-1.8
			C180.4,205.1,181.2,205.9,181.2,206.8z"/>
		<path class="st25" d="M181.2,198.4c0,1-0.8,1.8-1.8,1.8c-1,0-1.8-0.8-1.8-1.8s0.8-1.8,1.8-1.8
			C180.4,196.6,181.2,197.4,181.2,198.4z"/>
		<path class="st26" d="M181.2,190c0,1-0.8,1.8-1.8,1.8c-1,0-1.8-0.8-1.8-1.8c0-1,0.8-1.8,1.8-1.8C180.4,188.2,181.2,189,181.2,190z
			"/>
		<path class="st27" d="M181.2,181.5c0,1-0.8,1.8-1.8,1.8c-1,0-1.8-0.8-1.8-1.8s0.8-1.8,1.8-1.8
			C180.4,179.8,181.2,180.6,181.2,181.5z"/>
		<path class="st27" d="M181.2,173.1c0,1-0.8,1.8-1.8,1.8c-1,0-1.8-0.8-1.8-1.8s0.8-1.8,1.8-1.8
			C180.4,171.3,181.2,172.1,181.2,173.1z"/>
		<path class="st27" d="M181.2,164.6c0,1-0.8,1.8-1.8,1.8c-1,0-1.8-0.8-1.8-1.8c0-1,0.8-1.8,1.8-1.8
			C180.4,162.8,181.2,163.6,181.2,164.6z"/>
		<path class="st28" d="M181.2,156.1c0,1-0.8,1.8-1.8,1.8c-1,0-1.8-0.8-1.8-1.8c0-1,0.8-1.8,1.8-1.8
			C180.4,154.3,181.2,155.1,181.2,156.1z"/>
	</g>
	<g>
		<path class="st24" d="M201.5,189.9c0,1-0.8,1.8-1.8,1.8c-1,0-1.8-0.8-1.8-1.8c0-1,0.8-1.8,1.8-1.8
			C200.7,188.1,201.5,188.9,201.5,189.9z"/>
		<path class="st25" d="M201.5,181.4c0,1-0.8,1.8-1.8,1.8c-1,0-1.8-0.8-1.8-1.8s0.8-1.8,1.8-1.8
			C200.7,179.7,201.5,180.5,201.5,181.4z"/>
		<path class="st26" d="M201.5,173c0,1-0.8,1.8-1.8,1.8c-1,0-1.8-0.8-1.8-1.8c0-1,0.8-1.8,1.8-1.8C200.7,171.2,201.5,172,201.5,173z
			"/>
		<path class="st27" d="M201.5,164.6c0,1-0.8,1.8-1.8,1.8c-1,0-1.8-0.8-1.8-1.8c0-1,0.8-1.8,1.8-1.8
			C200.7,162.8,201.5,163.6,201.5,164.6z"/>
		<path class="st27" d="M201.5,156.1c0,1-0.8,1.8-1.8,1.8c-1,0-1.8-0.8-1.8-1.8s0.8-1.8,1.8-1.8
			C200.7,154.3,201.5,155.1,201.5,156.1z"/>
		<path class="st27" d="M201.5,147.6c0,1-0.8,1.8-1.8,1.8c-1,0-1.8-0.8-1.8-1.8s0.8-1.8,1.8-1.8
			C200.7,145.8,201.5,146.6,201.5,147.6z"/>
		<path class="st28" d="M201.5,139.1c0,1-0.8,1.8-1.8,1.8c-1,0-1.8-0.8-1.8-1.8c0-1,0.8-1.8,1.8-1.8
			C200.7,137.3,201.5,138.1,201.5,139.1z"/>
	</g>
	<g class="st29">
		<line class="st30" x1="689" y1="346.5" x2="694" y2="346.5"/>
		<line class="st31" x1="689" y1="335.5" x2="694" y2="335.5"/>
		<line class="st32" x1="689" y1="325.5" x2="694" y2="325.5"/>
		<line class="st33" x1="689" y1="315.5" x2="694" y2="315.5"/>
		<line class="st34" x1="689" y1="304.5" x2="694" y2="304.5"/>
		<line class="st35" x1="689" y1="294.5" x2="694" y2="294.5"/>
		<line class="st36" x1="689" y1="283.5" x2="694" y2="283.5"/>
		<line class="st37" x1="689" y1="273.5" x2="694" y2="273.5"/>
		<line class="st38" x1="689" y1="263.5" x2="694" y2="263.5"/>
		<line class="st39" x1="689" y1="252.5" x2="694" y2="252.5"/>
	</g>
	<g>
		<line class="st40" x1="708" y1="304.5" x2="713" y2="304.5"/>
		<line class="st41" x1="708" y1="293.5" x2="713" y2="293.5"/>
		<line class="st42" x1="708" y1="283.5" x2="713" y2="283.5"/>
		<line class="st43" x1="708" y1="273.5" x2="713" y2="273.5"/>
		<line class="st44" x1="708" y1="262.5" x2="713" y2="262.5"/>
		<line class="st45" x1="708" y1="252.5" x2="713" y2="252.5"/>
		<line class="st46" x1="708" y1="241.5" x2="713" y2="241.5"/>
		<line class="st30" x1="708" y1="231.5" x2="713" y2="231.5"/>
		<line class="st31" x1="708" y1="220.5" x2="713" y2="220.5"/>
		<line class="st32" x1="708" y1="210.5" x2="713" y2="210.5"/>
		<line class="st33" x1="708" y1="200.5" x2="713" y2="200.5"/>
		<line class="st34" x1="708" y1="189.5" x2="713" y2="189.5"/>
		<line class="st35" x1="708" y1="179.5" x2="713" y2="179.5"/>
		<line class="st36" x1="708" y1="168.5" x2="713" y2="168.5"/>
		<line class="st37" x1="708" y1="158.5" x2="713" y2="158.5"/>
		<line class="st38" x1="708" y1="148.5" x2="713" y2="148.5"/>
		<line class="st39" x1="708" y1="137.5" x2="713" y2="137.5"/>
	</g>
	<g class="st47">
		<g class="st48">
			<g>
				<rect x="56" y="215" width="5" height="1"/>
			</g>
		</g>
		<g class="st49">
			<g>
				<rect x="56" y="205" width="5" height="1"/>
			</g>
		</g>
		<g class="st50">
			<g>
				<rect x="56" y="194" width="5" height="1"/>
			</g>
		</g>
		<g class="st51">
			<g>
				<rect x="56" y="184" width="5" height="1"/>
			</g>
		</g>
		<g class="st52">
			<g>
				<rect x="56" y="173" width="5" height="1"/>
			</g>
		</g>
		<g class="st53">
			<g>
				<rect x="56" y="163" width="5" height="1"/>
			</g>
		</g>
		<g class="st54">
			<g>
				<rect x="56" y="153" width="5" height="1"/>
			</g>
		</g>
		<g class="st55">
			<g>
				<rect x="56" y="142" width="5" height="1"/>
			</g>
		</g>
		<g class="st56">
			<g>
				<rect x="56" y="132" width="5" height="1"/>
			</g>
		</g>
		<g class="st57">
			<g>
				<rect x="56" y="121" width="5" height="1"/>
			</g>
		</g>
		<g class="st58">
			<g>
				<rect x="56" y="111" width="5" height="1"/>
			</g>
		</g>
		<g class="st27">
			<g>
				<rect x="56" y="90" width="5" height="1"/>
			</g>
		</g>
	</g>
	<g class="st47">
		<line class="st40" x1="42" y1="194.5" x2="37" y2="194.5"/>
		<line class="st41" x1="42" y1="183.5" x2="37" y2="183.5"/>
		<line class="st42" x1="42" y1="173.5" x2="37" y2="173.5"/>
		<line class="st43" x1="42" y1="163.5" x2="37" y2="163.5"/>
		<line class="st44" x1="42" y1="152.5" x2="37" y2="152.5"/>
		<line class="st45" x1="42" y1="142.5" x2="37" y2="142.5"/>
		<line class="st46" x1="42" y1="131.5" x2="37" y2="131.5"/>
		<line class="st30" x1="42" y1="121.5" x2="37" y2="121.5"/>
		<line class="st32" x1="42" y1="100.5" x2="37" y2="100.5"/>
		<line class="st33" x1="42" y1="90.5" x2="37" y2="90.5"/>
		<line class="st34" x1="42" y1="79.5" x2="37" y2="79.5"/>
		<line class="st35" x1="42" y1="69.5" x2="37" y2="69.5"/>
		<line class="st36" x1="42" y1="58.5" x2="37" y2="58.5"/>
		<line class="st37" x1="42" y1="48.5" x2="37" y2="48.5"/>
		<line class="st38" x1="42" y1="38.5" x2="37" y2="38.5"/>
		<line class="st39" x1="42" y1="27.5" x2="37" y2="27.5"/>
	</g>
	<g>
		<line class="st33" x1="554" y1="72.5" x2="559" y2="72.5"/>
		<line class="st34" x1="554" y1="61.5" x2="559" y2="61.5"/>
		<line class="st35" x1="554" y1="51.5" x2="559" y2="51.5"/>
		<line class="st36" x1="554" y1="40.5" x2="559" y2="40.5"/>
		<line class="st37" x1="554" y1="30.5" x2="559" y2="30.5"/>
	</g>
	<g>
		<line class="st33" x1="327" y1="286.5" x2="332" y2="286.5"/>
		<line class="st34" x1="327" y1="275.5" x2="332" y2="275.5"/>
		<line class="st35" x1="327" y1="265.5" x2="332" y2="265.5"/>
		<line class="st36" x1="327" y1="254.5" x2="332" y2="254.5"/>
		<line class="st37" x1="327" y1="244.5" x2="332" y2="244.5"/>
	</g>
	<g>
		<line class="st59" x1="360.9" y1="167.2" x2="360.9" y2="171.5"/>
		<line class="st59" x1="354.7" y1="173.5" x2="358.9" y2="173.5"/>
		<line class="st59" x1="360.9" y1="179.8" x2="360.9" y2="175.5"/>
		<line class="st59" x1="367.2" y1="173.5" x2="363" y2="173.5"/>
	</g>
	<g>
		<line class="st59" x1="213.7" y1="36.7" x2="213.7" y2="40.9"/>
		<line class="st59" x1="207.4" y1="42.9" x2="211.6" y2="42.9"/>
		<line class="st59" x1="213.7" y1="49.2" x2="213.7" y2="45"/>
		<line class="st59" x1="219.9" y1="42.9" x2="215.7" y2="42.9"/>
	</g>
	<g>
		<line class="st59" x1="666" y1="79" x2="666" y2="83.2"/>
		<line class="st59" x1="659.7" y1="85.2" x2="663.9" y2="85.2"/>
		<line class="st59" x1="666" y1="91.5" x2="666" y2="87.3"/>
		<line class="st59" x1="672.2" y1="85.2" x2="668" y2="85.2"/>
	</g>
	<g>
		<line class="st59" x1="580.3" y1="248.2" x2="580.3" y2="252.5"/>
		<line class="st59" x1="574.1" y1="254.5" x2="578.3" y2="254.5"/>
		<line class="st59" x1="580.3" y1="260.8" x2="580.3" y2="256.5"/>
		<line class="st59" x1="586.6" y1="254.5" x2="582.4" y2="254.5"/>
	</g>
	<g>
		<line class="st59" x1="61" y1="300.3" x2="61" y2="304.5"/>
		<line class="st59" x1="54.7" y1="306.5" x2="59" y2="306.5"/>
		<line class="st59" x1="61" y1="312.8" x2="61" y2="308.6"/>
		<line class="st59" x1="67.3" y1="306.5" x2="63" y2="306.5"/>
	</g>
</g>
</svg>
